<mxfile host="app.diagrams.net" modified="2023-05-18T06:17:55.733Z" agent="Mozilla/5.0 (X11; Linux x86_64) AppleWebKit/537.36 (KHTML, like Gecko) Chrome/112.0.0.0 Safari/537.36" etag="84eDpRVuRnPmSY-8pyi7" version="21.3.2" type="github" pages="3">
  <diagram id="C5RBs43oDa-KdzZeNtuy" name="优化前">
    <mxGraphModel dx="1434" dy="731" grid="1" gridSize="10" guides="1" tooltips="1" connect="1" arrows="1" fold="1" page="1" pageScale="1" pageWidth="827" pageHeight="1169" math="0" shadow="0">
      <root>
        <mxCell id="WIyWlLk6GJQsqaUBKTNV-0" />
        <mxCell id="WIyWlLk6GJQsqaUBKTNV-1" parent="WIyWlLk6GJQsqaUBKTNV-0" />
        <mxCell id="pM_aRAHbGobCvIED-eT5-5" value="" style="edgeStyle=orthogonalEdgeStyle;rounded=1;orthogonalLoop=1;jettySize=auto;html=1;" edge="1" parent="WIyWlLk6GJQsqaUBKTNV-1" source="WIyWlLk6GJQsqaUBKTNV-3" target="WIyWlLk6GJQsqaUBKTNV-7">
          <mxGeometry relative="1" as="geometry" />
        </mxCell>
        <mxCell id="WIyWlLk6GJQsqaUBKTNV-3" value="创建IOS镜像" style="rounded=1;whiteSpace=wrap;html=1;fontSize=14;glass=0;strokeWidth=1;shadow=0;labelBackgroundColor=none;" parent="WIyWlLk6GJQsqaUBKTNV-1" vertex="1">
          <mxGeometry x="320" y="80" width="140" height="50" as="geometry" />
        </mxCell>
        <mxCell id="pM_aRAHbGobCvIED-eT5-6" value="" style="edgeStyle=orthogonalEdgeStyle;rounded=1;orthogonalLoop=1;jettySize=auto;html=1;" edge="1" parent="WIyWlLk6GJQsqaUBKTNV-1" source="WIyWlLk6GJQsqaUBKTNV-7" target="pM_aRAHbGobCvIED-eT5-2">
          <mxGeometry relative="1" as="geometry" />
        </mxCell>
        <mxCell id="WIyWlLk6GJQsqaUBKTNV-7" value="创建虚拟机实例" style="rounded=1;whiteSpace=wrap;html=1;fontSize=14;glass=0;strokeWidth=1;shadow=0;labelBackgroundColor=none;" parent="WIyWlLk6GJQsqaUBKTNV-1" vertex="1">
          <mxGeometry x="320" y="170" width="140" height="50" as="geometry" />
        </mxCell>
        <mxCell id="pM_aRAHbGobCvIED-eT5-13" value="" style="edgeStyle=orthogonalEdgeStyle;rounded=1;orthogonalLoop=1;jettySize=auto;html=1;" edge="1" parent="WIyWlLk6GJQsqaUBKTNV-1" source="pM_aRAHbGobCvIED-eT5-1" target="pM_aRAHbGobCvIED-eT5-11">
          <mxGeometry relative="1" as="geometry" />
        </mxCell>
        <mxCell id="pM_aRAHbGobCvIED-eT5-1" value="分离磁盘，制作新的镜像" style="rounded=1;whiteSpace=wrap;html=1;fontSize=14;glass=0;strokeWidth=1;shadow=0;labelBackgroundColor=none;" vertex="1" parent="WIyWlLk6GJQsqaUBKTNV-1">
          <mxGeometry x="320" y="440" width="140" height="50" as="geometry" />
        </mxCell>
        <mxCell id="pM_aRAHbGobCvIED-eT5-7" value="" style="edgeStyle=orthogonalEdgeStyle;rounded=1;orthogonalLoop=1;jettySize=auto;html=1;" edge="1" parent="WIyWlLk6GJQsqaUBKTNV-1" source="pM_aRAHbGobCvIED-eT5-2" target="pM_aRAHbGobCvIED-eT5-3">
          <mxGeometry relative="1" as="geometry" />
        </mxCell>
        <mxCell id="pM_aRAHbGobCvIED-eT5-2" value="挂载磁盘" style="rounded=1;whiteSpace=wrap;html=1;fontSize=14;glass=0;strokeWidth=1;shadow=0;labelBackgroundColor=none;" vertex="1" parent="WIyWlLk6GJQsqaUBKTNV-1">
          <mxGeometry x="320" y="260" width="140" height="50" as="geometry" />
        </mxCell>
        <mxCell id="pM_aRAHbGobCvIED-eT5-8" value="" style="edgeStyle=orthogonalEdgeStyle;rounded=1;orthogonalLoop=1;jettySize=auto;html=1;" edge="1" parent="WIyWlLk6GJQsqaUBKTNV-1" source="pM_aRAHbGobCvIED-eT5-3" target="pM_aRAHbGobCvIED-eT5-1">
          <mxGeometry relative="1" as="geometry" />
        </mxCell>
        <mxCell id="pM_aRAHbGobCvIED-eT5-3" value="安装系统" style="rounded=1;whiteSpace=wrap;html=1;fontSize=14;glass=0;strokeWidth=1;shadow=0;labelBackgroundColor=none;" vertex="1" parent="WIyWlLk6GJQsqaUBKTNV-1">
          <mxGeometry x="320" y="350" width="140" height="50" as="geometry" />
        </mxCell>
        <mxCell id="pM_aRAHbGobCvIED-eT5-14" value="" style="edgeStyle=orthogonalEdgeStyle;rounded=1;orthogonalLoop=1;jettySize=auto;html=1;" edge="1" parent="WIyWlLk6GJQsqaUBKTNV-1" source="pM_aRAHbGobCvIED-eT5-11" target="pM_aRAHbGobCvIED-eT5-12">
          <mxGeometry relative="1" as="geometry" />
        </mxCell>
        <mxCell id="pM_aRAHbGobCvIED-eT5-11" value="利用新的镜像创建实例" style="rounded=1;whiteSpace=wrap;html=1;fontSize=14;glass=0;strokeWidth=1;shadow=0;labelBackgroundColor=none;" vertex="1" parent="WIyWlLk6GJQsqaUBKTNV-1">
          <mxGeometry x="320" y="534.5" width="140" height="50" as="geometry" />
        </mxCell>
        <mxCell id="pM_aRAHbGobCvIED-eT5-12" value="可以使用" style="rounded=1;whiteSpace=wrap;html=1;fontSize=14;glass=0;strokeWidth=1;shadow=0;labelBackgroundColor=none;" vertex="1" parent="WIyWlLk6GJQsqaUBKTNV-1">
          <mxGeometry x="320" y="620" width="140" height="50" as="geometry" />
        </mxCell>
      </root>
    </mxGraphModel>
  </diagram>
  <diagram id="7nN11qzmvJIP0oRHpXtm" name="优化后">
    <mxGraphModel dx="1434" dy="731" grid="1" gridSize="10" guides="1" tooltips="1" connect="1" arrows="1" fold="1" page="1" pageScale="1" pageWidth="827" pageHeight="1169" math="0" shadow="0">
      <root>
        <mxCell id="0" />
        <mxCell id="1" parent="0" />
        <mxCell id="OuQn8PLsiOnmTn6KiEUb-1" value="" style="edgeStyle=orthogonalEdgeStyle;rounded=1;orthogonalLoop=1;jettySize=auto;html=1;" edge="1" parent="1" source="OuQn8PLsiOnmTn6KiEUb-2" target="OuQn8PLsiOnmTn6KiEUb-4">
          <mxGeometry relative="1" as="geometry" />
        </mxCell>
        <mxCell id="OuQn8PLsiOnmTn6KiEUb-2" value="创建IOS镜像" style="rounded=1;whiteSpace=wrap;html=1;fontSize=14;glass=0;strokeWidth=1;shadow=0;labelBackgroundColor=none;" vertex="1" parent="1">
          <mxGeometry x="320" y="80" width="140" height="50" as="geometry" />
        </mxCell>
        <mxCell id="OuQn8PLsiOnmTn6KiEUb-3" value="" style="edgeStyle=orthogonalEdgeStyle;rounded=1;orthogonalLoop=1;jettySize=auto;html=1;" edge="1" parent="1" source="OuQn8PLsiOnmTn6KiEUb-4" target="OuQn8PLsiOnmTn6KiEUb-8">
          <mxGeometry relative="1" as="geometry" />
        </mxCell>
        <mxCell id="OuQn8PLsiOnmTn6KiEUb-4" value="创建虚拟机实例" style="rounded=1;whiteSpace=wrap;html=1;fontSize=14;glass=0;strokeWidth=1;shadow=0;labelBackgroundColor=none;" vertex="1" parent="1">
          <mxGeometry x="320" y="170" width="140" height="50" as="geometry" />
        </mxCell>
        <mxCell id="OuQn8PLsiOnmTn6KiEUb-5" value="" style="edgeStyle=orthogonalEdgeStyle;rounded=1;orthogonalLoop=1;jettySize=auto;html=1;" edge="1" parent="1" source="OuQn8PLsiOnmTn6KiEUb-6">
          <mxGeometry relative="1" as="geometry">
            <mxPoint x="390" y="534.5" as="targetPoint" />
          </mxGeometry>
        </mxCell>
        <mxCell id="OuQn8PLsiOnmTn6KiEUb-6" value="调用分离接口，虚拟机重启" style="rounded=1;whiteSpace=wrap;html=1;fontSize=14;glass=0;strokeWidth=1;shadow=0;labelBackgroundColor=none;" vertex="1" parent="1">
          <mxGeometry x="320" y="440" width="140" height="50" as="geometry" />
        </mxCell>
        <mxCell id="OuQn8PLsiOnmTn6KiEUb-7" value="" style="edgeStyle=orthogonalEdgeStyle;rounded=1;orthogonalLoop=1;jettySize=auto;html=1;" edge="1" parent="1" source="OuQn8PLsiOnmTn6KiEUb-8" target="OuQn8PLsiOnmTn6KiEUb-10">
          <mxGeometry relative="1" as="geometry" />
        </mxCell>
        <mxCell id="OuQn8PLsiOnmTn6KiEUb-8" value="挂载磁盘" style="rounded=1;whiteSpace=wrap;html=1;fontSize=14;glass=0;strokeWidth=1;shadow=0;labelBackgroundColor=none;" vertex="1" parent="1">
          <mxGeometry x="320" y="260" width="140" height="50" as="geometry" />
        </mxCell>
        <mxCell id="OuQn8PLsiOnmTn6KiEUb-9" value="" style="edgeStyle=orthogonalEdgeStyle;rounded=1;orthogonalLoop=1;jettySize=auto;html=1;" edge="1" parent="1" source="OuQn8PLsiOnmTn6KiEUb-10" target="OuQn8PLsiOnmTn6KiEUb-6">
          <mxGeometry relative="1" as="geometry" />
        </mxCell>
        <mxCell id="OuQn8PLsiOnmTn6KiEUb-10" value="安装系统" style="rounded=1;whiteSpace=wrap;html=1;fontSize=14;glass=0;strokeWidth=1;shadow=0;labelBackgroundColor=none;" vertex="1" parent="1">
          <mxGeometry x="320" y="350" width="140" height="50" as="geometry" />
        </mxCell>
        <mxCell id="OuQn8PLsiOnmTn6KiEUb-13" value="可以使用" style="rounded=1;whiteSpace=wrap;html=1;fontSize=14;glass=0;strokeWidth=1;shadow=0;labelBackgroundColor=none;" vertex="1" parent="1">
          <mxGeometry x="320" y="535" width="140" height="50" as="geometry" />
        </mxCell>
      </root>
    </mxGraphModel>
  </diagram>
  <diagram id="JPywhGSqFldcp76FR1aL" name="详细">
    <mxGraphModel dx="1434" dy="731" grid="1" gridSize="10" guides="1" tooltips="1" connect="1" arrows="1" fold="1" page="1" pageScale="1" pageWidth="827" pageHeight="1169" math="0" shadow="0">
      <root>
        <mxCell id="0" />
        <mxCell id="1" parent="0" />
        <mxCell id="0el5dxHC3lXCiJFXOXt7-1" value="" style="edgeStyle=orthogonalEdgeStyle;rounded=1;orthogonalLoop=1;jettySize=auto;html=1;" edge="1" parent="1" source="0el5dxHC3lXCiJFXOXt7-2" target="0el5dxHC3lXCiJFXOXt7-3">
          <mxGeometry relative="1" as="geometry" />
        </mxCell>
        <mxCell id="0el5dxHC3lXCiJFXOXt7-2" value="调用接口" style="rounded=1;whiteSpace=wrap;html=1;fontSize=14;glass=0;strokeWidth=1;shadow=0;labelBackgroundColor=none;" vertex="1" parent="1">
          <mxGeometry x="320" y="80" width="140" height="50" as="geometry" />
        </mxCell>
        <mxCell id="0el5dxHC3lXCiJFXOXt7-3" value="修改数据库" style="rounded=1;whiteSpace=wrap;html=1;fontSize=14;glass=0;strokeWidth=1;shadow=0;labelBackgroundColor=none;" vertex="1" parent="1">
          <mxGeometry x="320" y="170" width="140" height="50" as="geometry" />
        </mxCell>
      </root>
    </mxGraphModel>
  </diagram>
</mxfile>
